<svg xmlns="http://www.w3.org/2000/svg" width="599" height="523" viewBox="0 0 599 523">
    <defs>
        <linearGradient id="a" x1="51.482%" x2="48.337%" y1="19.492%" y2="81.533%">
            <stop offset="0%" stop-color="#8A4CAD"/>
            <stop offset="100%" stop-color="#5A2876"/>
        </linearGradient>
    </defs>
    <g fill="none" fill-rule="evenodd" transform="translate(2)">
        <path fill="url(#a)" fill-rule="nonzero" d="M259.7 93.1s-53 20.3-93 12.3S17.8 117 25.7 231.7c0 35.7 13 119.2 111 215.5 12 13.3 73.5 80.5 156.5 75.4 0 0 216.4-11.2 230.5-171.6 0-15.5-4-45-17.7-70.3-13.7-25.2-23-53.2-32.7-104.2-7.3-41.7-7.3-92.7-63.3-113-11-4-50.3-11.7-90.3 2.3-15.7 6.6-45.8 22.6-60 27.3z"/>
        <g fill="#FFAD20" fill-rule="nonzero">
            <path d="M327.8 18.1l.4.8s.5-.3 1-.5c.5-.3 1-.5 1-.5l-.4-.8s-.5.3-1 .5c-.5.3-1 .5-1 .5zM325 19.8l.5.8s.5-.3.9-.6c.5-.3.9-.6.9-.6l-.5-.8s-.5.3-.9.6c-.4.4-.9.6-.9.6zM322.3 21.6l.5.8 1.8-1.2-.5-.8zM319.6 23.5l.5.7s.4-.3.9-.6c.4-.3.9-.6.9-.6l-.5-.7s-.5.3-.9.6c-.5.3-.9.6-.9.6zM317 25.5l.5.7s.4-.3.9-.7c.4-.3.9-.7.9-.7l-.5-.7s-.4.3-.9.7c-.5.4-.9.7-.9.7zM314.4 27.6l.6.7s.4-.3.8-.7c.4-.3.9-.7.9-.7l-.6-.7s-.4.3-.9.7c-.4.3-.8.7-.8.7zM311.9 29.7l.6.7s.4-.4.8-.7c.4-.4.8-.7.8-.7l-.6-.7s-.4.4-.8.7c-.4.3-.8.7-.8.7z"/>
            <g>
                <path d="M309.4 31.9l.6.7s.4-.4.8-.7c.4-.4.8-.7.8-.7l-.6-.7s-.4.4-.8.7c-.4.3-.8.7-.8.7zM307 34.1l.6.6.8-.8c.4-.4.8-.7.8-.7l-.6-.6-.8.8c-.4.3-.8.7-.8.7zM304.7 36.4l.6.7 1.6-1.6-.6-.6zM302.4 38.8l.7.6 1.5-1.6-.6-.6zM300.2 41.3l.7.5 1.5-1.6-.7-.6zM298.1 43.7l.7.6s.3-.4.7-.8c.4-.4.7-.8.7-.8l-.7-.6s-.4.4-.7.8c-.3.4-.7.8-.7.8zM296 46.3l.7.5 1.4-1.7-.7-.5z"/>
            </g>
            <g>
                <path d="M294 48.9l.7.5 1.4-1.7-.7-.6zM292.1 51.6l.7.5s.3-.4.6-.9.6-.9.6-.9l-.7-.5s-.3.4-.7.9c-.2.4-.5.9-.5.9zM290.2 54.2l.8.5 1.2-1.8-.7-.5zM288.4 57l.8.5 1.2-1.9-.8-.4zM286.7 59.8l.8.5s.3-.5.6-.9c.3-.5.6-.9.6-.9l-.8-.5s-.3.5-.6.9-.6.9-.6.9zM285.1 62.6l.7.5 1.1-1.9-.7-.5zM283.5 65.5l.8.5 1-2-.8-.4z"/>
            </g>
            <g>
                <path d="M282 68.4l.8.4s.2-.5.5-1 .5-1 .5-1l-.8-.4s-.3.5-.5 1c-.3.5-.5 1-.5 1zM280.6 71.4l.8.4.9-2-.8-.4zM279.2 74.4l.8.4.4-1c.2-.5.5-1 .5-1l-.8-.4s-.2.5-.5 1l-.4 1zM278 77.4l.8.4.8-2.1-.8-.3zM276.8 80.5l.8.3.4-1 .4-1-.8-.3-.4 1-.4 1zM275.6 83.6l.9.3.7-2.1-.8-.3zM274.6 86.7l.9.3.6-2.1-.8-.3z"/>
            </g>
            <g>
                <path d="M273.6 89.8l.9.3.6-2.1-.8-.3zM272.7 93l.9.2.6-2.1-.9-.2zM271.9 96.2l.9.2.5-2.1-.8-.3zM271.2 99.4l.8.2.5-2.2-.9-.2zM270.5 102.6l.9.1.4-2.1-.8-.2zM269.9 105.8l.9.2.3-2.2-.8-.2zM269.4 109l.8.2.4-2.2-.9-.1z"/>
            </g>
            <g>
                <path d="M268.9 112.3l.9.1s.1-.5.1-1.1c.1-.5.1-1.1.1-1.1l-.9-.1s-.1.5-.1 1.1c0 .5-.1 1.1-.1 1.1zM268.5 115.5l.9.1.3-2.1-.9-.1zM268.2 118.8l.9.1s0-.5.1-1.1c.1-.5.1-1.1.1-1.1l-.9-.1s-.1.5-.1 1.1c-.1.6-.1 1.1-.1 1.1zM267.9 122.1h.9l.2-2.1-.9-.1zM267.7 125.4h.9s0-.5.1-1.1c0-.5.1-1.1.1-1.1l-.9-.1s0 .5-.1 1.1c-.1.6-.1 1.2-.1 1.2zM267.6 128.6l.9.1.1-2.2-.9-.1zM267.5 131.9h.9l.1-2.2h-.9z"/>
            </g>
        </g>
        <g stroke="#FFF" stroke-width="2">
            <path d="M68.3 74.9h1"/>
            <path stroke-dasharray="1.9294,5.7881,1.9294,5.7881" d="M75 74.9h12.6"/>
            <path stroke-dasharray="1.9294,5.7881,1.9294,5.7881,1.9294,5.7881" d="M90.5 74.9h89.7"/>
            <path d="M183.1 74.9h1M68.3 84.2h1"/>
            <path stroke-dasharray="1.9294,5.7881,1.9294,5.7881" d="M75 84.2h12.6"/>
            <path stroke-dasharray="1.9294,5.7881,1.9294,5.7881,1.9294,5.7881" d="M90.5 84.2h89.7"/>
            <path d="M183.1 84.2h1"/>
            <g>
                <path d="M68.3 93.5h1"/>
                <path stroke-dasharray="1.9294,5.7881,1.9294,5.7881" d="M75 93.5h12.6"/>
                <path stroke-dasharray="1.9294,5.7881,1.9294,5.7881,1.9294,5.7881" d="M90.5 93.5h89.7"/>
                <path d="M183.1 93.5h1"/>
            </g>
            <g>
                <path d="M68.3 102.8h1"/>
                <path stroke-dasharray="1.9294,5.7881,1.9294,5.7881" d="M75 102.8h12.6"/>
                <path stroke-dasharray="1.9294,5.7881,1.9294,5.7881,1.9294,5.7881" d="M90.5 102.8h89.7"/>
                <path d="M183.1 102.8h1"/>
            </g>
            <g>
                <path d="M68.3 112.1h1"/>
                <path stroke-dasharray="1.9294,5.7881,1.9294,5.7881" d="M75 112.1h12.6"/>
                <path stroke-dasharray="1.9294,5.7881,1.9294,5.7881,1.9294,5.7881" d="M90.5 112.1h89.7"/>
                <path d="M183.1 112.1h1"/>
            </g>
            <g>
                <path d="M68.3 121.3h1"/>
                <path stroke-dasharray="1.9294,5.7881,1.9294,5.7881" d="M75 121.3h12.6"/>
                <path stroke-dasharray="1.9294,5.7881,1.9294,5.7881,1.9294,5.7881" d="M90.5 121.3h89.7"/>
                <path d="M183.1 121.3h1"/>
            </g>
            <g>
                <path d="M68.3 130.6h1"/>
                <path stroke-dasharray="1.9294,5.7881,1.9294,5.7881" d="M75 130.6h12.6"/>
                <path stroke-dasharray="1.9294,5.7881,1.9294,5.7881,1.9294,5.7881" d="M90.5 130.6h89.7"/>
                <path d="M183.1 130.6h1"/>
            </g>
        </g>
        <g transform="translate(99 113)">
            <path stroke="#202944" stroke-linejoin="round" stroke-width="5" d="M238.4 72.1l40.3-40.4M72.7 72.1L32.4 31.7"/>
            <circle cx="156.3" cy="155.6" r="145" fill="#FFF" fill-rule="nonzero" stroke="#FFBE53" stroke-width="1.5"/>
            <circle cx="156.3" cy="155.6" r="132.3" fill="#5D2673" fill-rule="nonzero"/>
            <circle cx="156.3" cy="155.6" r="12.7" fill="#FFBE53" fill-rule="nonzero"/>
            <circle cx="156.3" cy="155.6" r="19.2" stroke="#FFBE53" stroke-width="2"/>
            <path stroke="#FFF" stroke-linejoin="round" stroke-width="2.5" d="M122.6 41.1l33.7 114.5-36.5 64.2"/>
            <g stroke="#FFF" stroke-width="1.5">
                <g stroke-linejoin="round">
                    <path d="M156.3 47.3V28.1M156.3 283.2V264"/>
                </g>
                <path d="M96.2 51.7l-3.7-6.5M220 266.1l-3.7-6.5M52.3 95.6l-6.5-3.7M266.7 219.4l-6.5-3.7"/>
                <g>
                    <path d="M216.3 51.7l3.7-6.5M92.5 266.1l3.7-6.5"/>
                </g>
                <g>
                    <path d="M260.2 95.6l6.5-3.7M45.8 219.4l6.5-3.7"/>
                </g>
                <g stroke-linejoin="round">
                    <path d="M264.6 155.6h19.2M28.7 155.6h19.2"/>
                </g>
            </g>
            <path fill="#FFBE53" fill-rule="nonzero" d="M76.6 13.2L13.8 76c-17.3-17.3-17.3-45.5 0-62.8 17.4-17.4 45.5-17.4 62.8 0z"/>
            <path stroke="#FFF" stroke-linejoin="round" stroke-width="1.5" d="M18.2 17.6c7.2-7.2 16.8-11.2 27-11.2 3.8 0 7.6.6 11.2 1.6"/>
            <g>
                <path fill="#FFBE53" fill-rule="nonzero" d="M234.4 13.2L297.2 76c17.3-17.3 17.3-45.5 0-62.8-17.3-17.4-45.4-17.4-62.8 0z"/>
                <path stroke="#FFF" stroke-linejoin="round" stroke-width="1.5" d="M292.8 17.6c-7.2-7.2-16.8-11.2-27-11.2-3.8 0-7.6.6-11.2 1.6"/>
            </g>
        </g>
        <g stroke="#FFF" stroke-width="2">
            <path d="M417.3 401.1h1"/>
            <path stroke-dasharray="1.9294,5.7881,1.9294,5.7881" d="M424.1 401.1h12.6"/>
            <path stroke-dasharray="1.9294,5.7881,1.9294,5.7881,1.9294,5.7881" d="M439.6 401.1h89.7"/>
            <path d="M532.2 401.1h1M417.3 410.4h1"/>
            <path stroke-dasharray="1.9294,5.7881,1.9294,5.7881" d="M424.1 410.4h12.6"/>
            <path stroke-dasharray="1.9294,5.7881,1.9294,5.7881,1.9294,5.7881" d="M439.6 410.4h89.7"/>
            <path d="M532.2 410.4h1"/>
            <g>
                <path d="M417.3 419.7h1"/>
                <path stroke-dasharray="1.9294,5.7881,1.9294,5.7881" d="M424.1 419.7h12.6"/>
                <path stroke-dasharray="1.9294,5.7881,1.9294,5.7881,1.9294,5.7881" d="M439.6 419.7h89.7"/>
                <path d="M532.2 419.7h1"/>
            </g>
            <g>
                <path d="M417.3 429h1"/>
                <path stroke-dasharray="1.9294,5.7881,1.9294,5.7881" d="M424.1 429h12.6"/>
                <path stroke-dasharray="1.9294,5.7881,1.9294,5.7881,1.9294,5.7881" d="M439.6 429h89.7"/>
                <path d="M532.2 429h1"/>
            </g>
            <g>
                <path d="M417.3 438.3h1"/>
                <path stroke-dasharray="1.9294,5.7881,1.9294,5.7881" d="M424.1 438.3h12.6"/>
                <path stroke-dasharray="1.9294,5.7881,1.9294,5.7881,1.9294,5.7881" d="M439.6 438.3h89.7"/>
                <path d="M532.2 438.3h1"/>
            </g>
            <g>
                <path d="M417.3 447.5h1"/>
                <path stroke-dasharray="1.9294,5.7881,1.9294,5.7881" d="M424.1 447.5h12.6"/>
                <path stroke-dasharray="1.9294,5.7881,1.9294,5.7881,1.9294,5.7881" d="M439.6 447.5h89.7"/>
                <path d="M532.2 447.5h1"/>
            </g>
            <g>
                <path d="M417.3 456.8h1"/>
                <path stroke-dasharray="1.9294,5.7881,1.9294,5.7881" d="M424.1 456.8h12.6"/>
                <path stroke-dasharray="1.9294,5.7881,1.9294,5.7881,1.9294,5.7881" d="M439.6 456.8h89.7"/>
                <path d="M532.2 456.8h1"/>
            </g>
        </g>
        <path fill="#EDECEC" fill-rule="nonzero" d="M105.2 275.6s4.2-3.1 15.6.5c11.4 3.7 18.4 2.6 18.4 2.6s8.6-3.8 14.8.1c6.2 4 15.1.5 15.1.5s-4.3 9.3-32.7 8c-28.5-1.2-31.2-11.7-31.2-11.7z"/>
        <ellipse cx="376.1" cy="437.2" fill="#395B7B" fill-rule="nonzero" opacity=".33" rx="20.3" ry="3.6"/>
        <ellipse cx="335.3" cy="438.3" fill="#395B7B" fill-rule="nonzero" opacity=".33" rx="13.8" ry="3.6"/>
        <g transform="translate(299 380)">
            <circle cx="29.7" cy="29.5" r="29.3" fill="#FFA100" fill-rule="nonzero"/>
            <circle cx="29.7" cy="29.5" r="25.3" fill="#FFA100" fill-rule="nonzero"/>
            <path fill="#FFC835" fill-rule="nonzero" d="M29.7.2C13.5.2.4 13.3.4 29.5c0 16.2 13.1 29.3 29.3 29.3C45.9 58.8 59 45.7 59 29.5 59 13.4 45.9.2 29.7.2zm0 54.6c-14 0-25.3-11.3-25.3-25.3S15.7 4.2 29.7 4.2 55 15.5 55 29.5 43.6 54.8 29.7 54.8z"/>
            <circle cx="29.7" cy="29.5" r="21.7" stroke="#FFC835" stroke-width="1.254"/>
            <circle cx="29.7" cy="29.5" r="19.4" stroke="#FFC835" stroke-width=".454"/>
            <path fill="#FFC835" fill-rule="nonzero" d="M39 17.4H21.7l-1.4 2.2h6.3s2.7.4 3 3h-8.4l-1.4 2.7h10.8s-1.4 5.6-10 4.6l.1 2.6 9.9 11.6h4.7l-10-12.2s8.3.3 9-6.5h3.6l1.4-2.6h-5s-.3-2.8-1.8-3.5h5.1l1.4-1.9z"/>
            <path fill="#FFA100" fill-rule="nonzero" d="M56.4 33.2s0-.1 0 0c.1.8 1.4.4 1.3-.4 0-.2-.1-.4-.3-.5-.6-.7-1.6.2-1 .9zM55.5 38.8c.9 0 .9-1.4 0-1.4s-.9 1.4 0 1.4zM53.4 44.2c.9 0 .9-1.4 0-1.4s-.8 1.4 0 1.4zM50.6 48.4l.1-.1c.6-.6-.3-1.6-1-1l-.1.1c-.6.6.4 1.6 1 1zM45.9 52.6c.9 0 .9-1.4 0-1.4s-.9 1.4 0 1.4zM40 55.8c.9 0 .9-1.4 0-1.4s-.8 1.4 0 1.4zM33.8 57.5c.9 0 .9-1.4 0-1.4s-.9 1.4 0 1.4zM26.9 57.4l.1-.1c.6-.6-.3-1.6-1-1l-.1.1c-.6.6.4 1.6 1 1zM20.8 55.9c.9 0 .9-1.4 0-1.4-.8 0-.8 1.4 0 1.4zM15.9 53.8c.9 0 .9-1.4 0-1.4s-.9 1.4 0 1.4zM11.5 50.6c.9 0 .9-1.4 0-1.4s-.9 1.4 0 1.4zM7.3 46.4c.9 0 .9-1.4 0-1.4-.9.1-.9 1.4 0 1.4zM5.1 40.5l-.1-.1c-.6-.6-1.6.3-1 1l.1.1c.6.6 1.6-.4 1-1zM2.9 36.1c.9 0 .9-1.4 0-1.4-.8.1-.8 1.4 0 1.4zM2.3 30.1c.9 0 .9-1.4 0-1.4-.8 0-.8 1.4 0 1.4zM2.8 24.6h.1c.9 0 .9-1.4 0-1.4h-.1c-.9.1-.9 1.4 0 1.4zM4.8 18.8l.1-.1c.6-.6-.3-1.6-1-1l-.1.1c-.5.7.4 1.7 1 1zM7.7 13.8c.9 0 .9-1.4 0-1.4-.9.1-.9 1.4 0 1.4zM11.6 9.4c.9 0 .9-1.4 0-1.4-.9.1-.9 1.4 0 1.4zM16.2 6.5c.9 0 .9-1.4 0-1.4s-.9 1.4 0 1.4zM22.1 4c.9 0 .9-1.4 0-1.4-.8 0-.8 1.4 0 1.4zM27.7 3.2c.9 0 .9-1.4 0-1.4s-.9 1.4 0 1.4zM33.8 3.4c.9 0 .9-1.4 0-1.4s-.9 1.4 0 1.4zM39.9 5.2c.9 0 .9-1.4 0-1.4s-.9 1.4 0 1.4zM45.9 8.4h.1c.9 0 .9-1.4 0-1.4h-.1c-.9 0-.9 1.4 0 1.4zM50.2 12.2v.1c0 .9 1.4.9 1.4 0v-.1c-.1-.9-1.4-.9-1.4 0zM54.3 18.2c.9 0 .9-1.4 0-1.4s-.9 1.4 0 1.4zM56.2 25.2c.9 0 .9-1.4 0-1.4s-.9 1.4 0 1.4z"/>
        </g>
        <g transform="translate(124 256)">
            <circle cx="16.5" cy="16.6" r="16.5" fill="#FFA100" fill-rule="nonzero"/>
            <circle cx="16.5" cy="16.6" r="14.3" fill="#FFA100" fill-rule="nonzero"/>
            <path fill="#FFC835" fill-rule="nonzero" d="M16.5.1C7.4.1 0 7.5 0 16.6s7.4 16.5 16.5 16.5S33 25.7 33 16.6 25.6.1 16.5.1zm0 30.8c-7.9 0-14.3-6.4-14.3-14.3S8.6 2.3 16.5 2.3s14.3 6.4 14.3 14.3c-.1 7.9-6.5 14.3-14.3 14.3z"/>
            <circle cx="16.5" cy="16.6" r="12.3" stroke="#FFC835" stroke-width="1.254"/>
            <circle cx="16.5" cy="16.6" r="11" stroke="#FFC835" stroke-width=".454"/>
            <path fill="#FFC835" fill-rule="nonzero" d="M21.7 9.8H12l-.8 1.2h3.6s1.5.2 1.7 1.7h-4.8l-.8 1.5H17s-.8 3.2-5.6 2.6v1.5l5.6 6.5h2.6L14 17.9s4.7.2 5.1-3.7h2l.8-1.4h-2.8s-.2-1.6-1-2H21l.7-1z"/>
            <path fill="#FFA100" fill-rule="nonzero" d="M31.3 18.9c0-.1-.1-.1-.1-.2.2.9 1.5.5 1.3-.4 0-.2-.1-.3-.2-.4-.6-.6-1.5.3-1 1zM31 22.2c.9 0 .9-1.4 0-1.4s-.9 1.4 0 1.4zM29.9 25.2c.9 0 .9-1.4 0-1.4s-.9 1.4 0 1.4zM28.5 27.5s0-.1 0 0c.7-.7-.3-1.6-.9-1l-.1.1c-.6.5.4 1.5 1 .9zM25.6 29.9c.9 0 .9-1.4 0-1.4-.9.1-.9 1.4 0 1.4zM22.3 31.8c.9 0 .9-1.4 0-1.4s-.9 1.4 0 1.4zM18.8 32.7c.9 0 .9-1.4 0-1.4s-.9 1.4 0 1.4zM15.1 32.6c0-.1 0-.1 0 0 .7-.7-.3-1.6-.9-1l-.1.1c-.6.5.4 1.5 1 .9zM11.5 31.8c.9 0 .9-1.4 0-1.4-.9.1-.9 1.4 0 1.4zM8.7 30.6c.9 0 .9-1.4 0-1.4s-.9 1.4 0 1.4zM6.2 28.8c.9 0 .9-1.4 0-1.4s-.9 1.4 0 1.4zM3.8 26.5c.9 0 .9-1.4 0-1.4s-.8 1.4 0 1.4zM2.8 22.6s-.1 0 0 0c-.7-.7-1.7.3-1 .9l.1.1c.5.6 1.5-.3.9-1zM1.4 20.6c.9 0 .9-1.4 0-1.4s-.9 1.4 0 1.4zM1 17.2c.9 0 .9-1.4 0-1.4-.8.1-.8 1.4 0 1.4zM1.3 14.2c.9 0 .9-1.4.1-1.4h-.1c-.9 0-.9 1.4 0 1.4zM2.7 10.8c.7-.7-.3-1.7-.9-1l-.1.1c-.6.6.3 1.5 1 .9zM4 8.1c.9 0 .9-1.4 0-1.4-.8 0-.8 1.4 0 1.4zM6.3 5.6c.9 0 .9-1.4 0-1.4s-.9 1.4 0 1.4zM8.9 3.9c.9 0 .9-1.4 0-1.4-.9.1-.9 1.4 0 1.4zM12.2 2.5c.9 0 .9-1.4 0-1.4-.9.1-.9 1.4 0 1.4zM15.4 2.1c.9 0 .9-1.4 0-1.4s-.9 1.4 0 1.4zM18.8 2.2c.9 0 .9-1.4 0-1.4s-.9 1.4 0 1.4zM22.2 3.2c.9 0 .9-1.4 0-1.4-.8 0-.8 1.4 0 1.4zM25.6 5c.9 0 .9-1.4.1-1.4h-.1c-.9 0-.9 1.4 0 1.4zM27.7 6.9c0 .9 1.4.9 1.4.1v-.1c0-.9-1.4-.9-1.4 0zM30.3 10.5c.9 0 .9-1.4 0-1.4-.8.1-.8 1.4 0 1.4zM31.4 14.5c.9 0 .9-1.4 0-1.4s-.9 1.4 0 1.4z"/>
        </g>
        <g transform="translate(328 360)">
            <circle cx="39.6" cy="39.5" r="38.9" fill="#FFA100" fill-rule="nonzero"/>
            <circle cx="39.6" cy="39.5" r="33.6" fill="#FFA100" fill-rule="nonzero"/>
            <path fill="#FFC835" fill-rule="nonzero" d="M39.6.6C18.1.6.7 18 .7 39.5s17.4 38.9 38.9 38.9S78.5 61 78.5 39.5 61 .6 39.6.6zm0 72.5C21.1 73.1 6 58.1 6 39.5 6 21 21 5.9 39.6 5.9c18.5 0 33.6 15 33.6 33.6-.1 18.6-15.1 33.6-33.6 33.6z"/>
            <circle cx="39.6" cy="39.5" r="28.8" stroke="#FFC835" stroke-width="1.254"/>
            <circle cx="39.6" cy="39.5" r="25.8" stroke="#FFC835" stroke-width=".454"/>
            <path fill="#FFC835" fill-rule="nonzero" d="M52 23.5H29.1l-1.8 2.9h8.4s3.5.5 3.9 3.9H28.4l-1.8 3.6h14.3S39 41.4 27.7 40l.1 3.4 13.1 15.4h6.2L33.9 42.6s11 .4 12-8.7h4.8l1.9-3.4H46s-.4-3.7-2.3-4.6h6.7l1.6-2.4z"/>
            <path fill="#FFA100" fill-rule="nonzero" d="M75.2 44.2c0 .4.5.6.8.5.4-.1.5-.5.5-.8 0-.3-.2-.4-.3-.6-.7-.7-1.6.3-1 .9zM73.8 51.6c.9 0 .9-1.4 0-1.4s-.9 1.4 0 1.4zM71.1 58.7c.9 0 .9-1.4 0-1.4s-.9 1.4 0 1.4zM67.2 64.3l.2-.2c.6-.6-.3-1.6-1-1l-.2.2c-.6.7.4 1.6 1 1zM61 69.9c.9 0 .9-1.4 0-1.4s-.8 1.4 0 1.4zM53.3 74.1c.9 0 .9-1.4 0-1.4s-.8 1.4 0 1.4zM45 76.3c.9 0 .9-1.4 0-1.4s-.9 1.4 0 1.4zM35.7 76.3l.2-.2c.6-.6-.3-1.6-1-1l-.2.2c-.6.6.4 1.6 1 1zM27.8 74.3c.9 0 .9-1.4 0-1.4s-.8 1.4 0 1.4zM21.2 71.5c.9 0 .9-1.4 0-1.4s-.8 1.4 0 1.4zM15.4 67.2c.9 0 .9-1.4 0-1.4s-.9 1.4 0 1.4zM9.9 61.7c.9 0 .9-1.4 0-1.4s-.9 1.4 0 1.4zM6.8 54.2l-.2-.2c-.6-.6-1.6.3-1 1l.2.2c.6.6 1.6-.3 1-1zM4.1 48c.9 0 .9-1.4 0-1.4s-.9 1.4 0 1.4zM3.3 40c.9 0 .9-1.4 0-1.4s-.9 1.4 0 1.4zM3.9 32.8h.2c.9 0 .9-1.4 0-1.4h-.2c-.8 0-.8 1.4 0 1.4zM6.5 25.2l.2-.2c.6-.6-.3-1.6-1-1l-.2.2c-.6.6.3 1.6 1 1zM10.4 18.4c.9 0 .9-1.4 0-1.4s-.9 1.4 0 1.4zM15.6 12.6c.9 0 .9-1.4 0-1.4s-.9 1.4 0 1.4zM21.7 8.7c.9 0 .9-1.4 0-1.4s-.9 1.4 0 1.4zM29.6 5.4c.9 0 .9-1.4 0-1.4s-.9 1.4 0 1.4zM37 4.3c.9 0 .9-1.4 0-1.4s-.9 1.4 0 1.4zM45 4.6c.9 0 .9-1.4 0-1.4s-.9 1.4 0 1.4zM53.2 7c.9 0 .9-1.4 0-1.4s-.9 1.4 0 1.4zM61 11.2h.2c.9 0 .9-1.4 0-1.4H61c-.8 0-.8 1.4 0 1.4zM67 16.5v.2c0 .9 1.4.9 1.4 0v-.2c-.1-.9-1.4-.9-1.4 0zM72.2 24.3c.9 0 .9-1.4 0-1.4s-.9 1.4 0 1.4zM74.7 33.5c.9 0 .9-1.4 0-1.4s-.9 1.4 0 1.4z"/>
        </g>
        <g transform="translate(152 239)">
            <circle cx="12.2" cy="12.4" r="11.5" fill="#FFA100" fill-rule="nonzero"/>
            <circle cx="12.2" cy="12.4" r="9.9" fill="#FFA100" fill-rule="nonzero"/>
            <path fill="#FFC835" fill-rule="nonzero" d="M12.2.9C5.9.9.7 6 .7 12.4c0 6.3 5.1 11.5 11.5 11.5 6.3 0 11.5-5.1 11.5-11.5S18.6.9 12.2.9zm0 21.4c-5.5 0-9.9-4.4-9.9-9.9s4.4-9.9 9.9-9.9 9.9 4.4 9.9 9.9c0 5.4-4.4 9.9-9.9 9.9z"/>
            <circle cx="12.2" cy="12.4" r="8.5" stroke="#FFC835" stroke-width=".87"/>
            <circle cx="12.2" cy="12.4" r="7.6" stroke="#FFC835" stroke-width=".315"/>
            <path fill="#FFC835" fill-rule="nonzero" d="M15.9 7.6H9.1l-.5.8h2.5s1 .2 1.2 1.2H9l-.5 1.1h4.2s-.6 2.2-3.9 1.8v1l3.9 4.5h1.8l-3.9-4.8s3.3.1 3.5-2.6h1.4l.6-1h-2s-.1-1.1-.7-1.4h2l.5-.6z"/>
            <path fill="#FFA100" fill-rule="nonzero" d="M22.5 13.8c0 .1 0 .1 0 0 .3.6 1.1.2.9-.4v-.1c-.4-.5-1.2 0-.9.5zM22.3 16.2c.6 0 .6-.9 0-.9s-.6.9 0 .9zM21.5 18.3c.6 0 .6-.9 0-.9s-.6.9 0 .9zM20.6 19.9s0-.1 0 0c.5-.5-.2-1.2-.6-.7-.5.4.1 1.1.6.7zM18.6 21.6c.6 0 .6-.9 0-.9s-.7.9 0 .9zM16.3 22.8c.6 0 .6-.9 0-.9s-.6.9 0 .9zM13.8 23.5c.6 0 .6-.9 0-.9s-.6.9 0 .9zM11.3 23.4c.5-.5-.2-1.1-.6-.7-.5.5.1 1.1.6.7zM8.8 22.9c.6 0 .6-.9 0-.9-.6-.1-.6.9 0 .9zM6.8 22.1c.6 0 .6-.9 0-.9-.6-.1-.6.9 0 .9zM5.1 20.8c.6 0 .6-.9 0-.9s-.6.9 0 .9zM3.5 19.2c.6 0 .6-.9 0-.9-.6-.1-.6.9 0 .9zM2.7 16.5c-.5-.5-1.1.2-.7.6.5.5 1.2-.1.7-.6zM1.8 15.1c.6 0 .6-.9 0-.9-.7 0-.7.9 0 .9zM1.5 12.8c.6 0 .6-.9 0-.9s-.6.9 0 .9zM1.7 10.6c.7 0 .7-.9 0-.9-.6 0-.6.9 0 .9zM2.6 8.3c.1 0 .1 0 0 0 .5-.5-.2-1.1-.6-.7-.5.5.2 1.2.6.7zM3.6 6.4c.6 0 .6-.9 0-.9s-.6.9 0 .9zM5.1 4.7c.6 0 .6-.9 0-.9s-.6.9 0 .9zM7 3.5c.6 0 .6-.9 0-.9-.7 0-.7.9 0 .9zM9.3 2.6c.6 0 .6-.9 0-.9-.6-.1-.6.9 0 .9zM11.5 2.2c.6 0 .6-.9 0-.9-.7 0-.7.9 0 .9zM13.8 2.3c.6 0 .6-.9 0-.9s-.6.9 0 .9zM16.2 3c.6 0 .6-.9 0-.9s-.6.9 0 .9zM18.6 4.3c.7 0 .7-.9 0-.9-.7-.1-.7.9 0 .9zM20 5.6c0 .7.9.7.9 0 .1-.6-.9-.6-.9 0zM21.9 8.1c.6 0 .6-.9 0-.9-.7 0-.7.9 0 .9zM22.6 10.9c.6 0 .6-.9 0-.9-.6-.1-.6.9 0 .9z"/>
        </g>
        <g transform="translate(113 230)">
            <circle cx="12.3" cy="12.1" r="11.5" fill="#FFA100" fill-rule="nonzero"/>
            <circle cx="12.3" cy="12.1" r="9.9" fill="#FFA100" fill-rule="nonzero"/>
            <path fill="#FFC835" fill-rule="nonzero" d="M12.3.6C6 .6.8 5.7.8 12.1c0 6.3 5.1 11.5 11.5 11.5 6.3 0 11.5-5.1 11.5-11.5S18.6.6 12.3.6zm0 21.4c-5.5 0-9.9-4.4-9.9-9.9s4.4-9.9 9.9-9.9 9.9 4.4 9.9 9.9c0 5.4-4.4 9.9-9.9 9.9z"/>
            <circle cx="12.3" cy="12.1" r="8.5" stroke="#FFC835" stroke-width=".87"/>
            <circle cx="12.3" cy="12.1" r="7.6" stroke="#FFC835" stroke-width=".315"/>
            <path fill="#FFC835" fill-rule="nonzero" d="M16 7.3H9.2l-.5.9h2.5s1 .2 1.2 1.2H9l-.5 1.1h4.2s-.6 2.2-3.9 1.8v1l3.9 4.5h1.8L10.6 13s3.3.1 3.5-2.6h1.4l.6-1h-2S14 8.3 13.4 8h2l.6-.7z"/>
            <path fill="#FFA100" fill-rule="nonzero" d="M22.5 13.5c.1.1.1.1 0 0 .3.6 1.1.2.9-.4V13c-.3-.5-1.1 0-.9.5zM22.4 15.9c.6 0 .6-.9 0-.9s-.6.9 0 .9zM21.6 18c.6 0 .6-.9 0-.9s-.6.9 0 .9zM20.6 19.6c.1 0 .1-.1 0 0 .5-.5-.2-1.1-.6-.7-.5.4.2 1.1.6.7zM18.6 21.3c.6 0 .6-.9 0-.9s-.6.9 0 .9zM16.4 22.6c.6 0 .6-.9 0-.9-.6-.1-.6.9 0 .9zM13.9 23.2c.6 0 .6-.9 0-.9s-.6.9 0 .9zM11.4 23.1c.5-.5-.2-1.2-.6-.7-.5.5.1 1.1.6.7zM8.8 22.6c.6 0 .6-.9 0-.9s-.6.9 0 .9zM6.9 21.8c.6 0 .6-.9 0-.9-.6-.1-.6.9 0 .9zM5.2 20.5c.6 0 .6-.9 0-.9s-.6.9 0 .9zM3.6 18.9c.6 0 .6-.9 0-.9-.7-.1-.7.9 0 .9zM2.8 16.2c-.5-.5-1.1.2-.7.6.5.5 1.2-.1.7-.6zM1.8 14.8c.6 0 .6-.9 0-.9s-.6.9 0 .9zM1.6 12.5c.6 0 .6-.9 0-.9-.6-.1-.6.9 0 .9zM1.8 10.3c.7 0 .7-.9 0-.9-.6 0-.6.9 0 .9zM2.7 8s.1 0 0 0c.5-.5-.2-1.1-.6-.7-.5.5.2 1.2.6.7zM3.7 6.1c.6 0 .6-.9 0-.9s-.6.9 0 .9zM5.2 4.4c.6 0 .6-.9 0-.9s-.6.9 0 .9zM7 3.2c.6 0 .6-.9 0-.9s-.6.9 0 .9zM9.4 2.3c.6 0 .6-.9 0-.9-.7-.1-.7.9 0 .9zM11.5 1.9c.6 0 .6-.9 0-.9s-.6.9 0 .9zM13.9 2c.6 0 .6-.9 0-.9s-.6.9 0 .9zM16.3 2.7c.6 0 .6-.9 0-.9s-.6.9 0 .9zM18.6 4c.1 0 .1 0 0 0 .7 0 .7-.9 0-.9-.6-.1-.6.9 0 .9zM20.1 5.3c0 .7.9.7.9 0 .1-.6-.9-.6-.9 0zM21.9 7.8c.6 0 .6-.9 0-.9s-.6.9 0 .9zM22.7 10.6c.6 0 .6-.9 0-.9-.6-.1-.6.9 0 .9z"/>
        </g>
        <ellipse cx="152.2" cy="444" fill="#395B7B" fill-rule="nonzero" opacity=".33" rx="76.3" ry="7.6"/>
        <path fill="#EDECEC" fill-rule="nonzero" d="M157.2 313.3c18.6 9.3 30.4 27.4 38.8 45.9 5.6 12.2 10.4 25 11.5 38.3.4 5 .3 10.1-1.1 15-2.6 8.6-9.4 15.5-16.8 20.8-5 3.5-10.3 6.6-16.2 8.5-6.3 2.1-13 2.7-19.7 3.2-57.4 4.4-65.9-16.9-68.8-24.7-2.9-7.8-3.2-18.9-2.4-27.1 2-19.8 7.7-39.4 18.2-56.4 5.3-8.6 11.9-16.5 19.4-23.4 0 0 4.2-2.7 2.6-6.8-2-5.1-6.5-9.3-9.9-13.6-3-3.9-6-7.7-8.1-12.1-.8-1.7-1.3-4.2.4-5.2.9-.5 2.1-.3 3.2.1 3 1.1 5.4 3.3 8.3 4.3 5.8 2.1 12.2-.5 17.6-3.3 2.8-1.5 6.3-3 8.8-1.2 1 .7 1.6 1.7 2.3 2.7 2.8 3.8 7.9 5.8 12.6 5.1 4.8-.7 9-3.9 13.9-4.6 2.2-.3 4.6 1.7 4.2 3.9-.4 2.2-2.3 3.7-4 5.1-6.7 5.3-13.9 10.7-16.8 18.5-.5 1.2-.8 2.6-.5 3.9 0-.1.1 2 2.5 3.1z"/>
        <path fill="#DEDEDF" fill-rule="nonzero" d="M135.2 445.6c5.5.1 11.7 0 18.5-.5 6.7-.5 13.4-1.1 19.7-3.2 5.8-1.9 11.2-5 16.2-8.5 7.5-5.3 14.2-12.2 16.8-20.8 1.5-4.8 1.6-9.9 1.1-15-1.2-13.3-5.9-26.1-11.5-38.3-8.5-18.5-20.3-36.6-38.8-45.9-2.4-1.2-2.5-3.3-2.5-3.3-.3-1.3.1-2.6.5-3.9 2.9-7.8 10.2-13.2 16.8-18.5 1.8-1.4 3.6-3 4-5.1.4-2.2-1.9-4.2-4.2-3.9-4.9.6-9 3.9-13.9 4.6-4.7.7-9.8-1.4-12.6-5.1-.7-.9-1.3-2-2.3-2.7-2.5-1.8-6.1-.3-8.8 1.2-5.4 2.8-11.8 5.4-17.6 3.3-3-1.1-5.4-3.2-8.3-4.3-1-.4-2.2-.6-3.2-.1-1.7 1-1.2 3.4-.4 5.2 2.1 4.4 5.1 8.3 8.1 12.1 3.3 4.3 8.2 8.4 9.9 13.6 1.1 3.3-.5 4.7-.5 4.7-.9 1.1-.7 1.1-2.1 2.2 0 0 16.5-3.6 35 14.5 19.5 19 22.4 45.2 22.4 45.2s10 57.2-42.3 72.5"/>
        <path fill="#525859" fill-rule="nonzero" d="M128.2 312.8s-.2.3-.5.8c-.2.2-.4.6-.6.9-.1.2-.2.3-.4.5l-.3.6c-.2.4-.5.8-.8 1.2-.3.4-.5.9-.9 1.4l-.9 1.5-.9 1.5c-.3.5-.6 1.1-.9 1.6-.3.5-.6 1-.8 1.5-.2.5-.6 1-.8 1.4-.2.5-.4.9-.7 1.3-.5.8-.7 1.5-1 2-.3.5-.4.8-.4.8l-.1.2c-.6.8-1.7 1.1-2.5.5-.5-.3-.8-.9-.8-1.5v-1c0-.3 0-.7.1-1.1 0-.4.1-.9.2-1.4.1-.5.2-1.1.4-1.7.1-.6.4-1.2.6-1.8.2-.6.5-1.3.8-1.9.3-.6.7-1.2 1-1.9l1.2-1.8c.4-.6.8-1.1 1.3-1.6.4-.5.8-1 1.3-1.4.5-.4.9-.8 1.3-1.2.2-.2.4-.4.6-.5.2-.1.4-.2.5-.4l.9-.6c.5-.3.8-.5.8-.5.8-.4 1.9-.1 2.3.7.3.8.3 1.4 0 1.9z"/>
        <path fill="#525859" fill-rule="nonzero" d="M130.9 312.2s0 .3-.1.9c-.1.3-.1.6-.2 1 0 .2-.1.4-.1.6 0 .2-.1.4-.1.6-.1.4-.1.9-.3 1.4-.1.5-.2 1-.3 1.6-.1.5-.2 1.1-.3 1.7-.1.6-.2 1.2-.3 1.7-.1.6-.1 1.2-.2 1.7-.1.6-.1 1.1-.2 1.7 0 .6-.2 1.1-.2 1.6s-.1 1-.1 1.4c-.1.9-.1 1.7-.2 2.2-.1.5-.1.9-.1.9v.2c-.2 1-1.2 1.6-2.2 1.4-.6-.1-1.1-.5-1.3-1.1l-.3-.9c-.1-.3-.2-.6-.3-1-.1-.4-.3-.9-.3-1.4-.1-.5-.2-1.1-.3-1.7-.1-.6-.1-1.2-.1-1.9v-2c.1-.7.1-1.4.2-2.1.1-.7.3-1.4.4-2 .1-.7.4-1.3.6-1.9.2-.6.4-1.2.7-1.8.3-.6.5-1.1.8-1.6.1-.2.2-.5.4-.7.1-.2.2-.4.4-.5.2-.3.4-.6.6-.8.3-.5.6-.7.6-.7.6-.7 1.7-.8 2.4-.2.3.6.5 1.1.4 1.7z"/>
        <g fill="#A8ABAB" fill-rule="nonzero">
            <path d="M93.3 377s-.2.7-.6 1.9c-.2.6-.4 1.3-.6 2.1-.2.8-.4 1.8-.6 2.8-.2 1-.4 2.2-.6 3.4-.1 1.2-.3 2.5-.4 3.8-.1 1.3-.2 2.7-.2 4.1-.1 1.4 0 2.8 0 4.3 0 1.4 0 2.9.1 4.3 0 .7.1 1.4.1 2.1.1.7.1 1.4.2 2 .1 1.3.3 2.6.5 3.8.2 1.2.4 2.3.6 3.4.3 1 .4 2 .7 2.8.3.8.4 1.6.7 2.1.4 1.1.7 1.8.7 1.8v.1c.2.4 0 .9-.5 1-.4.2-.8 0-1-.4 0 0-.3-.7-.9-1.8-.3-.6-.6-1.3-.9-2.2-.4-.8-.6-1.8-.9-2.9-.3-1.1-.6-2.3-.8-3.5-.2-1.3-.5-2.6-.6-3.9-.1-.7-.2-1.4-.2-2.1-.1-.7-.1-1.4-.2-2.2-.1-1.4-.2-2.9-.2-4.4 0-1.5 0-3 .1-4.4.1-1.5.2-2.9.3-4.3.1-1.4.4-2.7.6-4 .3-1.2.5-2.4.8-3.5.3-1.1.5-2.1.8-2.9.3-.9.5-1.7.8-2.2.5-1.2.8-1.8.8-1.8.2-.4.6-.5 1-.4.3.4.5.8.4 1.1z"/>
            <path d="M95.9 386.6s-.1.4-.2 1.2c-.1.4-.1.8-.2 1.3s-.1 1.1-.2 1.7c-.1 1.2-.2 2.7-.3 4.2-.1.8-.1 1.6-.1 2.4 0 .8 0 1.6-.1 2.5v2.5c0 .8 0 1.6.1 2.4 0 .8.1 1.5.1 2.2.1.7.1 1.4.2 2 .1.6.1 1.2.3 1.6.1.5.2.9.3 1.2.2.7.3 1.1.3 1.1v.1c.1.4-.2.9-.6 1-.4.1-.7-.1-.9-.4 0 0-.2-.4-.5-1.1-.2-.4-.3-.8-.5-1.3s-.3-1.1-.5-1.7c-.1-.6-.3-1.3-.4-2.1-.1-.7-.2-1.5-.3-2.3-.2-1.6-.2-3.3-.2-5.1 0-.9.1-1.7.1-2.6.1-.8.1-1.7.2-2.5s.2-1.6.3-2.3c.1-.7.2-1.4.4-2 .1-.6.3-1.2.4-1.7.1-.5.3-1 .4-1.3.2-.7.4-1.1.4-1.1.1-.4.6-.6.9-.5.4 0 .6.3.6.6zM190.6 409.8s-.1.3-.2.7c-.1.5-.3 1.1-.5 1.9-.1.4-.2.8-.4 1.3-.1.5-.4.9-.6 1.4-.4 1-1 2-1.5 3-.6.9-1.2 1.9-1.9 2.8-.3.4-.6.9-.9 1.2-.3.4-.6.7-.9 1-.6.6-1.1 1.1-1.5 1.4-.4.3-.6.5-.6.5-.3.3-.8.3-1.1-.1-.2-.3-.3-.6-.1-.9v-.1s.1-.2.4-.6c.3-.4.6-1 1.1-1.6.2-.3.5-.7.8-1 .3-.4.5-.8.8-1.2.5-.9 1.1-1.7 1.7-2.6l1.5-2.7c.2-.4.5-.8.7-1.3l.6-1.2c.4-.7.7-1.4.9-1.8.2-.4.4-.7.4-.7.2-.4.7-.5 1-.3.2.3.3.6.3.9zM132.9 308.7v-.2c0-.1-.1-.2-.2-.2l-.1-.1c-.2-.1-.3-.1-.5-.1-.1 0-.2.1-.3.2l-.2.2v.4c0 .1 0 .1.1.2v.1c0 .1 0 .1-.1 0s-.3-.2-.4-.3c-.6-.4-1.3-1-1.9-1.6-.6-.6-1.2-1.4-1.6-1.9-.4-.6-.6-1-.6-1-.2-.4 0-.9.4-1.1.2-.1.5-.1.7 0 0 0 .4.2 1 .6.6.4 1.3 1 1.9 1.7.6.7 1.2 1.4 1.6 2 .1.1.2.3.3.4 0 .1.1.1.2.3l.1.1c0 .1.1.2.1.3v.5c0 .1-.1.2-.2.3-.1.1-.3.2-.4.2-.2.1-.4 0-.7-.1-.1 0-.1-.1-.2-.1-.1-.1-.2-.2-.2-.3 0-.1-.1-.2-.1-.2.1-.4.5-.7.9-.6.1-.1.3.1.4.3zM135.3 308.3s-.3-.4-.5-1.1c-.1-.3-.3-.7-.4-1.2l-.3-1.5V303c0-.5.1-.9.2-1.3l.3-1.2c.2-.4.7-.6 1.1-.5.2.1.4.3.5.5v.1s.2.5.2 1.2c0 .2 0 .4.1.6 0 .2.1.4.1.6.1.4.1.9.1 1.3s.1.9.1 1.3v1.2c0 .7-.1 1.2-.1 1.2-.1.4-.5.7-.9.7-.1-.1-.3-.2-.5-.4zM139.5 307.3s-.2-.4-.3-1c-.1-.6-.2-1.4-.2-2.2 0-.8.1-1.6.3-2.2.1-.6.3-1 .3-1 .2-.4.7-.6 1.2-.4.2.1.4.3.4.5 0 0 .2.4.3 1 .1.6.2 1.4.1 2.2 0 .8-.2 1.6-.3 2.2-.1.6-.3 1-.3 1-.2.4-.7.6-1.1.4-.2-.1-.3-.3-.4-.5zM143.6 307.3s-.1-.4-.2-.9c0-.1 0-.3-.1-.4v-.5c0-.4.1-.8.1-1.1.1-.4.2-.7.4-1 .1-.3.3-.6.5-.8.3-.5.6-.7.6-.7.4-.3.9-.3 1.2.1.1.1.2.3.2.5v1c0 .1 0 .3-.1.4 0 .1 0 .3-.1.4 0 .3-.1.6-.2.9-.1.3-.1.6-.2.8 0 .1-.1.3-.1.4 0 .1-.1.3-.1.4-.2.5-.4.8-.4.8-.2.4-.7.5-1.1.3-.2-.3-.3-.5-.4-.6zM145.3 323s-.4-.5-1.1-1.4c-.6-.9-1.5-2.1-2-3.5s-.8-2.8-1-3.9c-.2-1-.3-1.7-.3-1.7-.1-.4.2-.8.6-.9.4-.1.8.2.9.6 0 0 .1.7.3 1.7.2 1 .4 2.4.9 3.6.5 1.2 1.2 2.3 1.8 3.2.6.8 1.1 1.4 1.1 1.4.3.3.2.8-.1 1-.4.2-.8.2-1.1-.1zM137.1 313s0 .2-.1.7c-.1.4-.1 1-.3 1.7-.1.4-.1.7-.2 1.1-.1.4-.1.8-.2 1.2-.1.9-.3 1.8-.4 2.6-.1.9-.2 1.8-.4 2.7-.1.4-.2.8-.2 1.2 0 .4-.1.8-.1 1.1-.1.7-.2 1.3-.3 1.7-.1.4-.1.6-.1.6v.1c-.1.4-.5.7-1 .6-.3-.1-.6-.4-.6-.7 0 0 0-.2-.1-.7 0-.4-.1-1-.1-1.8v-1.2c0-.4 0-.9.1-1.3.1-.9.2-1.9.3-2.8.2-1 .4-1.9.6-2.8.1-.4.2-.9.4-1.3.1-.4.3-.7.4-1.1.3-.7.5-1.2.7-1.6l.3-.6c.2-.4.6-.5 1-.3.1.3.3.6.3.9z"/>
            <path d="M195.1 405.5s0 .5-.1 1.3c0 .4-.1.9-.2 1.4 0 .3-.1.6-.1.9 0 .3-.1.6-.2 1-.2.7-.3 1.5-.5 2.2-.2.8-.5 1.6-.7 2.4-.3.8-.5 1.7-1 2.5-.4.8-.8 1.7-1.2 2.6-.5.8-.9 1.6-1.4 2.4-.4.8-1 1.5-1.5 2.3-.5.7-1 1.4-1.6 2-.5.6-1.1 1.2-1.5 1.7-.2.3-.5.5-.7.7-.2.2-.5.4-.7.6-.4.4-.8.7-1.1 1-.6.5-1 .8-1 .8-.3.3-.8.2-1.1-.1-.2-.3-.2-.7 0-1 0 0 .3-.3.8-.9.3-.3.6-.6.9-1.1.4-.4.8-.9 1.2-1.4.4-.5.8-1.1 1.3-1.7.5-.6.9-1.3 1.4-2 .5-.7 1-1.4 1.4-2.2.4-.8.9-1.5 1.3-2.3.4-.8.8-1.6 1.1-2.4.4-.8.7-1.6 1-2.4.3-.8.7-1.5.9-2.2.2-.7.4-1.4.6-2l.3-.9c.1-.3.1-.6.2-.9.1-.5.2-1 .3-1.4l.3-1.2c.1-.4.5-.6.9-.5.5.1.7.4.7.8z"/>
        </g>
        <path fill="#525859" fill-rule="nonzero" d="M123.2 308.7s.5 0 1.4.1c.5 0 1 .1 1.6.1.6.1 1.3.1 2.1.1.7 0 1.6.1 2.4.1.8.1 1.8 0 2.7.1 1.9.1 3.9.1 5.9.2h5.9c.9 0 1.8 0 2.7-.1.9 0 1.7-.1 2.4-.1 1.5 0 2.8-.1 3.7-.1h1.5c1 0 1.8.9 1.8 1.8 0 .8-.5 1.4-1.2 1.6 0 0-.5.2-1.4.5-.4.1-1 .3-1.6.5-.3.1-.7.2-1 .3-.4.1-.7.2-1.1.2-.8.2-1.6.3-2.5.5-.9.2-1.9.2-2.9.3-1 .1-2 .2-3.1.2h-3.2c-1.1-.1-2.1-.1-3.2-.2-1.1 0-2.1-.2-3.1-.4-1-.1-1.9-.3-2.9-.5-.9-.2-1.8-.4-2.6-.6-.8-.2-1.5-.4-2.1-.6-.6-.2-1.1-.4-1.6-.5-.9-.3-1.3-.5-1.3-.5-.9-.3-1.3-1.3-.9-2.2.3-.4.9-.8 1.6-.8z"/>
        <path fill="#525859" fill-rule="nonzero" d="M155.5 307.8s-1.9.7-4.9 1.5c-.7.2-1.5.4-2.4.6-.9.2-1.8.4-2.7.5-1 .2-1.9.3-3 .5-.5.1-1 .1-1.5.2l-1.5.2c-2 .2-4.1.3-6 .4h-2.8c-.9 0-1.7 0-2.5-.1h-1.1c-.4 0-.7 0-1.1-.1H125.1c-.4-.1-.7-.1-1-.2-.6-.2-.9-.4-1.2-.5l-.4-.2c-.9-.4-1.3-1.5-.8-2.4.3-.7 1.1-1.1 1.8-1h.5c.2 0 .5.1.8.1h.4c.2 0 .5-.1.8-.1h.1-.1H126.3c.2 0 .3-.1.5-.1.3 0 .7-.1 1.1-.2.7-.1 1.6-.2 2.4-.3l2.7-.3c.9-.1 1.9-.2 2.9-.3l3-.3 1.5-.1c.5-.1 1-.1 1.5-.2 1-.1 1.9-.2 2.8-.2.9-.1 1.8-.1 2.7-.2.9-.1 1.7-.2 2.4-.2 3-.2 5.1-.2 5.1-.2.9 0 1.7.8 1.6 1.7.1.7-.4 1.3-1 1.5z"/>
        <g fill="#A8ABAB" fill-rule="nonzero">
            <path d="M109.5 281.4s.3-.1.6 0h.5c.2 0 .3 0 .4.1.2 0 .3.1.5.1.1.1.3.1.4.2.2.1.4.3.4.3l.1.2c.4.4.3 1 0 1.4l-.1.1s-.2.2-.6.2c-.2.1-.4.1-.6.1-.2 0-.5-.1-.7-.1-.3-.1-.5-.2-.7-.3-.1-.1-.2-.1-.3-.2l-.2-.2c-.2-.3-.3-.5-.3-.5-.2-.5 0-1 .5-1.3 0-.1.1-.1.1-.1zM110.7 285.1s.2-.1.6-.2c.3 0 .7 0 1.1.1.3 0 .6.2.9.3l.4.4.1.1c.3.4.3 1.1-.2 1.4 0 0-.1 0-.1.1 0 0-.2.1-.6.2-.3.1-.8.1-1.2 0-.4-.1-.7-.3-1-.5l-.4-.4c-.3-.5-.1-1.1.4-1.5-.1.1 0 0 0 0zM113.2 288.8s.2-.1.6-.1c.3 0 .8 0 1.2.1.4 0 .7.2.9.4l.4.4.1.1c.3.4.3 1-.1 1.4l-.1.1s-.2.1-.6.2c-.4.1-.8.1-1.3-.1-.4-.1-.8-.4-1-.6-.3-.2-.4-.4-.4-.4-.3-.4-.2-1 .3-1.3-.1-.2-.1-.2 0-.2zM115.4 292.1s.2-.1.5-.2.7-.1 1.1-.1c.4.1.7.2 1 .4.3.2.4.4.4.4.4.5.3 1.2-.2 1.5h-.1s-.2.1-.5.2-.7.1-1 0c-.4-.1-.7-.2-1-.4-.3-.2-.4-.4-.4-.4-.4-.4-.3-1 .2-1.4zM118.1 295.3s.2-.2.4-.3c.3-.1.6-.2.9-.2.3 0 .7.1.9.2.2.1.4.3.4.3.4.5.4 1.2-.1 1.6 0 0-.2.2-.4.3-.3.1-.6.2-.9.2-.3 0-.7-.1-.9-.3-.2-.1-.4-.3-.4-.3-.3-.4-.3-1.1.1-1.5z"/>
        </g>
        <g fill="#A8ABAB" fill-rule="nonzero">
            <path d="M157.1 316.4s0 .2-.1.5c-.1.2-.2.5-.4.7-.2.2-.5.3-.7.3h-.5c-.6-.1-1-.7-1-1.2 0 0 0-.2.1-.4s.3-.5.5-.6c.2-.2.5-.3.8-.3h.5c.4 0 .8.5.8 1zM159.9 317.9s-.1.3-.2.5c-.2.3-.4.6-.8.8-.3.2-.7.4-1 .5-.3.1-.6 0-.6 0-.6-.1-1-.6-.9-1.2v-.1s.1-.3.2-.5c.2-.3.5-.6.8-.8.3-.2.7-.4 1-.4.3-.1.6 0 .6 0 .5.1.9.5.9 1.1v.1zM162.4 319.5s0 .2-.2.5c-.1.3-.4.5-.7.8-.2.2-.4.3-.7.4-.2.1-.5.1-.5.1h-.3c-.5 0-1-.5-1-1 0 0 0-.3.2-.6.1-.3.4-.7.7-1 .3-.2.7-.3 1-.4h.5c.7.1 1.1.6 1 1.2zM164.7 321.8s0 .2-.1.5-.3.5-.5.7c-.2.2-.5.4-.8.4-.3.1-.5 0-.5 0-.6-.1-1.1-.6-1-1.2 0 0 0-.2.1-.5.1-.2.3-.5.5-.7.3-.2.6-.3.8-.4.3-.1.5 0 .5 0 .6.1 1 .6 1 1.2zM167.2 323.6s-.1.3-.2.5c-.2.3-.4.6-.7.8-.3.2-.7.4-1 .5-.3.1-.6.1-.6.1-.6-.1-1-.6-1-1.2v-.1s.1-.3.2-.5c.2-.3.4-.6.7-.8.3-.2.7-.4 1-.4.3-.1.6 0 .6 0 .5.1.9.5.9 1.1h.1z"/>
        </g>
        <g fill="#A8ABAB" fill-rule="nonzero">
            <path d="M99.7 426.2s-.1.2-.2.5c-.2.2-.4.5-.7.7-.2.2-.5.3-.8.3h-.6c-.6-.1-1-.7-.9-1.3 0 0 0-.2.2-.5s.4-.5.8-.8c.3-.2.7-.3.9-.3h.5c.6.2.9.8.8 1.4zM102.3 427.9v.7c0 .1-.1.2-.1.3-.1.2-.3.4-.4.5-.3.3-.7.5-1 .5-.3.1-.6 0-.6 0-.5-.1-.9-.7-.8-1.2v-.2s0-.2.1-.4.2-.4.5-.6c.1-.1.2-.1.3-.2.1 0 .1 0 .2-.1.1 0 .1-.1.2-.1.3-.1.5-.1.5-.1.5 0 1.1.4 1.1.9zM105.4 430v.5c0 .2-.1.5-.3.8-.3.3-.6.5-.9.5-.3.1-.5 0-.5 0-.5-.1-.8-.5-.9-1v-.3-.4c0-.2.1-.4.3-.5.2-.2.4-.4.7-.4.2-.1.5-.1.5-.1.5-.1 1 .3 1.1.9zM109.4 432.1s0 .3-.1.6c0 .1 0 .2-.1.2 0 .1-.1.2-.2.3-.2.2-.3.4-.5.6-.2.1-.4.3-.6.3-.2.1-.4.1-.6.1h-.6c-.5-.2-.8-.7-.6-1.2v-.1l.1-.2s.1-.2.3-.4l.3-.3.3-.3c.1-.1.2-.1.3-.2.1 0 .1 0 .2-.1.1 0 .2-.1.2-.1.3-.1.5-.2.5-.2.5-.1 1 .3 1.1.8v.2z"/>
        </g>
        <circle cx="142.1" cy="380.3" r="27.9" fill="#838787" fill-rule="nonzero"/>
        <path fill="#EDECEC" fill-rule="nonzero" d="M156.5 364.3H133l-1.9 3h8.7s3.6.5 4.1 4.1h-11.5l-1.9 3.7h14.7s-2 7.7-13.6 6.2l.1 3.5 13.5 15.8h6.4L138 383.9s11.3.4 12.3-8.9h4.9l1.9-3.5h-6.8s-.4-3.8-2.4-4.7h6.9l1.7-2.5z"/>
        <g transform="translate(178 399)">
            <ellipse cx="22.181" cy="24.689" fill="#FFA100" fill-rule="nonzero" rx="23.699" ry="20.999" transform="rotate(-88.081 22.181 24.689)"/>
            <ellipse cx="24.898" cy="24.623" fill="#FFA100" fill-rule="nonzero" rx="23.699" ry="18.199" transform="rotate(-88.081 24.898 24.623)"/>
            <ellipse cx="24.898" cy="24.625" stroke="#FFC835" stroke-width="1.653" rx="17.699" ry="13.599" transform="rotate(-88.083 24.898 24.625)"/>
            <ellipse cx="24.897" cy="24.625" stroke="#FFC835" stroke-width=".62" rx="15.399" ry="11.9" transform="rotate(-88.082 24.897 24.625)"/>
            <path fill="#FFC835" fill-rule="nonzero" d="M25.7.9c-10.1-.3-18.6 10-19 23-.4 13.1 7.4 23.9 17.4 24.2 10.1.3 18.6-10 19-23 .5-13-7.3-23.8-17.4-24.2zm15.1 24.2c-.4 11.4-7.8 20.3-16.6 20C15.4 44.8 8.6 35.4 9 24c.4-11.4 7.8-20.3 16.6-20 8.8.3 15.6 9.8 15.2 21.1z"/>
            <path fill="#FFC835" fill-rule="nonzero" d="M31.6 15.3h-11l-.9 1.6h4s1.7.3 1.9 2.2h-5.4l-.9 2h6.8s-.9 4.2-6.3 3.4v1.9l6.3 8.6h3l-6.3-9.1s5.3.2 5.7-4.8h2.3l.9-1.9h-3.2s-.2-2.1-1.1-2.6h3.2l1-1.3z"/>
            <path fill="#FFA100" fill-rule="nonzero" d="M29.7 3.9c.8 0 .8-1.2 0-1.2s-.8 1.2 0 1.2zM33.4 5.7c.9 0 .9-1.2.1-1.2h-.1c-.8 0-.8 1.2 0 1.2zM35.8 8s.1 0 0 0c.9 0 .9-1.2.1-1.2h-.1c-.8 0-.8 1.2 0 1.2zM37.6 10.1c0 .9 1.2.9 1.2.1v-.1c.1-.8-1.2-.8-1.2 0zM39.6 13.6c.8 0 .8-1.2 0-1.2s-.8 1.2 0 1.2zM40.4 16.8c.6.6 1.5-.2.9-.8l-.1-.1c-.5-.6-1.4.3-.8.9zM41.6 20.9c.8 0 .8-1.2 0-1.2s-.8 1.2 0 1.2zM42.1 25.5c.8 0 .8-1.2 0-1.2s-.8 1.2 0 1.2zM41.4 30.3c.8 0 .8-1.2 0-1.2s-.8 1.2 0 1.2zM40.3 33.3c-.3 0-.5.1-.7.4-.4.7.6 1.3 1.1.6v-.1c-.2.1-.4.2-.5.3h.1c.8 0 .8-1.2 0-1.2zM37.7 38c0 .9 1.2.9 1.2.1V38c0-.8-1.2-.8-1.2 0zM35.3 42.8c.8 0 .8-1.2 0-1.2s-.8 1.2 0 1.2zM31 45.7c.8 0 .8-1.2 0-1.2s-.8 1.2 0 1.2zM26.4 47.1c.8 0 .8-1.2 0-1.2s-.8 1.2 0 1.2zM21.4 46.8s.1 0 0 0c.9 0 .9-1.2.1-1.2h-.1c-.8 0-.8 1.2 0 1.2zM17.6 45.5c.8 0 .8-1.2 0-1.2s-.8 1.2 0 1.2zM13.9 42.5c.8 0 .8-1.2 0-1.2s-.8 1.2 0 1.2zM11 38.6c.8 0 .8-1.2 0-1.2s-.8 1.2 0 1.2zM9 34.2c.8 0 .8-1.2 0-1.2s-.8 1.2 0 1.2zM8 29.5c.8 0 .8-1.2 0-1.2-.8-.1-.8 1.2 0 1.2zM7.8 24.3c.8 0 .8-1.2 0-1.2-.8-.1-.8 1.2 0 1.2zM8.6 18.8c.8 0 .8-1.2 0-1.2s-.8 1.2 0 1.2zM10 14.7c.8 0 .8-1.2 0-1.2s-.8 1.2 0 1.2zM12.1 10.7c.8 0 .8-1.2 0-1.2s-.8 1.2 0 1.2zM15 7.5c.8 0 .8-1.2 0-1.2s-.8 1.2 0 1.2zM18.2 5.1c.8 0 .8-1.2 0-1.2s-.8 1.2 0 1.2zM21.9 3.8c.8 0 .8-1.2 0-1.2s-.8 1.2 0 1.2zM25.7 3.4c.8 0 .8-1.2 0-1.2s-.8 1.2 0 1.2z"/>
        </g>
        <g fill="#A8ABAB" fill-rule="nonzero">
            <path d="M203.1 395.6s-.2.2-.5.4-.7.3-1.1.3c-.4 0-.8-.1-1.2-.2-.3-.2-.5-.4-.5-.4-.6-.6-.5-1.5 0-2.1 0 0 .2-.2.5-.4s.7-.3 1.1-.3c.4 0 .8.1 1.2.3.3.2.5.4.5.4.4.6.4 1.5 0 2z"/>
            <path d="M202.8 392s-.1.3-.3.5c-.2.2-.5.4-.8.5-.4 0-.8-.1-1.1-.2-.3-.1-.5-.4-.5-.4-.4-.5-.4-1.3-.1-1.8l.2-.3s.1-.2.3-.4c.2-.2.4-.3.7-.3.3 0 .7 0 .9.2.3.1.5.3.5.3.4.5.5 1.3.2 1.9z"/>
            <path d="M202.4 389s-.2.2-.5.4-.6.3-1 .4c-.5 0-1-.2-1.3-.4-.3-.2-.5-.5-.5-.5-.4-.6-.3-1.3.2-1.8l.3-.3s.2-.2.4-.3c.2-.1.5-.2.8-.1.4 0 .8.1 1 .3.3.2.5.4.5.4.5.5.5 1.3.1 1.9zM202 385s-.2.3-.4.5c-.3.2-.6.4-1 .5-.5 0-1-.1-1.4-.3-.4-.2-.6-.4-.6-.4-.4-.5-.4-1.3 0-1.8l.3-.3.4-.4c.2-.2.5-.2.8-.2.4 0 .8.1 1.1.2.3.1.5.3.5.3.6.5.7 1.3.3 1.9z"/>
        </g>
        <g stroke="#FFF" stroke-linecap="round" stroke-linejoin="round" stroke-width="4">
            <path d="M35.4 211.5h25.3M21.2 234.5h69.9M.9 257.5h69.8M17.4 280.9h69.8M33.3 304.7h35M87.2 304.7h12.4M68.4 211.5h25.3M101.4 211.5H114"/>
        </g>
        <circle cx="578" cy="434" r="18.6" fill="#FFBE53" fill-rule="nonzero"/>
        <g fill-rule="nonzero">
            <path fill="#FFF" d="M326.1 1.9l8.7 6.2 6 5.5 7.9 10.5c.3.5 1 .5 1.4.1l20.1-22.9-43.6-1c-.8 0-1.2 1.1-.5 1.6z"/>
            <path fill="#FFBE53" d="M370.2 1.3l-35.4 6.9-3.3 6.3 2.3.8z"/>
            <path fill="#FFA100" d="M330.5 16.3c-.4.8.4 1.6 1.1 1.3 8.7-3.7 38.5-16.3 38.5-16.3l-38.7 13.1-.9 1.9z"/>
        </g>
        <g fill-rule="nonzero">
            <path fill="#F8AE81" d="M411.2 274.7c.4 8.2.9 17 1.5 26.2 3.1 53.7 7.2 119.9 8.4 145.7l9.9.6s5.8-69.8 5.8-93.8c0-10 .9-25.4 2.2-42.5.9-11.7 1.9-24.2 2.9-36.3l-30.7.1z"/>
            <path fill="#FA8465" d="M411.2 274.7c.4 8.2 1 18.6 1.5 27.8 6.1 3.5 16.1 6.8 26.2 8.4.9-11.7 1.9-24.2 2.9-36.3l-30.6.1z"/>
            <path fill="#564CDE" d="M427.1 441.2s-5.8-1.3-7.4-1.2c-1.6.1-11.8 12.5-15.3 13.4-6.5 1.6-6 11.8-2 12.1 11.6 1 31-4.8 31-4.8s1.2-13.2.3-17.2c-1.1-4.1-3.3-1.2-6.6-2.3z"/>
            <path fill="#F8AE81" d="M447.5 274.6c1 12.1 2 24.6 2.9 36.3v.3c0 .5.1 1.1.1 1.6 1.2 16.3 2.1 31 2 40.6 0 24 5.8 93.8 5.8 93.8l11.5-.8c1.2-23.9 4.2-82.6 6.7-133.7 0-.6.1-1.2.1-1.8 0-.5 0-1 .1-1.5.6-12.3 1.2-24.1 1.7-34.9l-30.9.1z"/>
            <path fill="#FA8465" d="M447.5 274.6c1 12.1 2 24.6 2.9 36.3v.3c7.4.5 18.5-.2 26.3-1.8.6-12.3 1.2-24.1 1.7-34.9l-30.9.1z"/>
            <path fill="#564CDE" d="M468.2 444.4s2.6-3.7 4.8-3.6c2.2.1 19.1 13 24.8 13.9 5.7 1 4.7 5.2 3.7 7.3-1 2.2-45.4.2-45.4.2s-1.5-13.2-.2-17.2 7.8.5 12.3-.6z"/>
            <path fill="#373543" d="M481.5 129.9c-8.2 7.3-17.8 4-30.1-2.2s-4.4 6-16.4 8.1c-12 2.1-10.6-27.7-11.4-42.5-.5-9.3-4.2-21.1-4.2-25.8v-.1c-.1-.8-.1-1.6-.1-2.3-.1-11.3 6.9-32 31.4-28.7 0 0 20.4 2.3 22.7 22.2 0 0 1 9.2 1.6 15.8 1.8 18.8 8.8 9 6.5 32-.7 7.5 9.6 14.9 0 23.5z"/>
            <g>
                <path fill="#D72C0F" d="M406.9 115.2s-4.3 36.8-9.3 54.5c0 0-7-3.3-16.3-7.7-10-4.8-24.4-13.6-24.4-13.6l-3.6 8.7s37.1 35 49.4 37c12.3 2 19.8-42 19.8-42l-15.6-36.9z"/>
                <path fill="#F8AE81" d="M357.7 149.3s1-4.9-1.2-8.2c-2.2-3.3-5.5-9.5-9.4-10.8-3.3-1.1 1.6 4.4 1.7 7.9 0 0-4.9-.6-8.4-1.8-3.1-1-9.2-2.3-12-2.8-.8-.2-1.3.8-.7 1.3 1 .8 3 1.9 7.2 2.9 0 0-10.2-1.9-11.2-.4-1.1 1.6 11.7 3.7 11.7 3.7s-9.9-.6-10.2 1c-.2.9 10.1 3.1 10.1 3.1s-9.4.3-7.1 1.7c.7.4 18.8 2.5 25.1 9.9 0 .2 4.3-4.1 4.4-7.5z"/>
            </g>
            <g>
                <path fill="#F8461A" d="M407.7 248.4l-.2.7c16.2 10.9 76.7 3.5 76.7 3.5-.1-1.3-.2-2.6-.4-4-.2-1.5-.4-3.1-.7-4.8-.7-4.4-1.7-9.2-2.8-14.1-.4-1.5-.7-3.1-1.1-4.7-1.1-4.7-2.3-9.4-3.4-14-.4-1.6-.8-3.2-1.1-4.7-.5-2.2-1-4.3-1.4-6.4-.6-2.7-1.1-5.4-1.6-7.9-.3-1.7-.6-3.3-.8-4.8-.2-1.6-.4-3.1-.5-4.5 1-3.6 1.9-7 2.7-10.4l1.2-5.1c1.2-5.3 2.3-10.4 3.3-15.1.3-1.7.7-3.4 1-5 1.1-5.6 1.9-10.6 2.6-15.1.3-1.8.5-3.4.7-5 .2-1.7.5-3.3.6-4.7.8-6.3 1.1-9.8 1.1-9.8-.1-.1-.3-.2-.4-.3-1.8-1.3-4.7-2.5-7.9-3.6-3.4-1.2-7.1-2.2-10.4-3l-1.5-.3c-4.3-1-7.5-1.6-7.5-1.6-14.7 3.1-18.9 1.1-18.9 1.1l-7.5 2.2-.9.3-5.4 1.9-.2.1-9.7 3.4-6.5 2.3 2.5 11.6 1.1 5.1 3.3 15.3 1.1 5.1 3.3 15.3 1.1 5 2.7 12.6-.5 2.4-1.1 4.7-1.7 7.5-1.5 6.7-1.1 4.7-3.2 14.1-1.1 4.6-3.2 13.9-.8 4.8z"/>
                <path fill="#F8AE81" d="M428.8 107.5c1.6 9.2 5.4 21.5 14.6 22.4 11.2 1.2 17.6-15.9 20.1-24.5-4.3-1-8.8-2-8.8-2-14.7 3.1-17.5 1.2-17.5 1.2l-7.6 2.5-.8.4z"/>
                <path fill="#FFF" d="M445.2 119.2c11.7 0 14.5-14.4 14.5-14.6.1-.3-.1-.6-.5-.7-.3-.1-.6.1-.7.5-.1.6-2.8 14.2-14.1 13.6-9.9-.5-10.5-11.5-10.5-12 0-.3-.3-.6-.6-.6s-.6.3-.6.6c0 .1.6 12.5 11.6 13.1.4.1.6.1.9.1z"/>
                <g>
                    <path fill="#373543" d="M401 288.2c26 16.3 65.3 14.7 88.1 4l-.7-5.6-.2-1.6-.4-3.2-.1-.7-.3-2.2-1.4-11.2-.1-.9-.3-2.2-.2-1.6-1.3-10.3v-.3c-.1-.7-.2-1.5-.2-2.2-.1-.5-.1-.9-.2-1.4-.2-1.6-.4-3.1-.7-4.8-.3-1.9-.7-3.8-1.1-5.8-.1-.7-.3-1.4-.4-2.2-.4-2-.8-4-1.3-6-.4-1.5-.7-3.1-1.1-4.7-.1-.4-.2-.7-.3-1.1-.2-.7-.3-1.5-.5-2.2-.9-3.6-1.7-7.2-2.6-10.7-.1-.4-.2-.7-.2-1.1-.2-.7-.4-1.5-.5-2.2-.1-.5-.2-.9-.3-1.4-.5-2.2-1-4.3-1.4-6.3-10.1 2.3-33 6.1-54.5-.3l-1.4 6.1-.2.7-.3 1.5-.7 3.2-2 8.6-.5 2.2-.7 3.2-1.1 4.7-.9 3.9-.5 2.2-1.8 7.8-.9 4-.2.7-.2.7-.1.9-2 12v.3l-.3 2-.4 2.7-1.6 9.3-.4 2.3-.4 2.3v.3l-.7 4.4-.5 2.2z"/>
                    <path fill="#565960" d="M401 288.3c26 16.3 65.3 14.7 88.1 4l-.7-5.6-.2-1.6c-6.2 2.7-20.4 7.4-43.1 7.3-21.5-.2-35.9-6.8-42.8-11.1l-.7 4.4-.6 2.6z"/>
                </g>
            </g>
            <g>
                <g transform="translate(420 45)">
                    <g transform="translate(0 21)">
                        <path fill="#FA8465" d="M7.7 2.8S4.2-1.6 1.6 2C-1 5.7 2.7 16.5 9.1 13.9L7.7 2.8z"/>
                        <circle cx="5" cy="13.1" r="1.2" fill="#FFF"/>
                        <path fill="#FA664D" d="M7.7 10.5c-.2 0-.5-.1-.5-.4-1-3.3-4.6-4.7-4.7-4.7-.3-.1-.4-.4-.3-.7.1-.3.4-.4.7-.3.2.1 4.2 1.5 5.3 5.4.1.3-.1.6-.4.6l-.1.1z"/>
                        <path fill="#FA664D" d="M4 8.8c-.1 0-.2 0-.3-.1-.3-.2-.3-.5-.2-.7 0 0 .7-1 2-1.5.3-.1.6 0 .7.3.1.3 0 .6-.3.7-1 .4-1.6 1.2-1.6 1.2s-.2.1-.3.1z"/>
                    </g>
                    <path fill="#F8AE81" d="M34.7 46.4v13.3s-6.2 4.8-11 5.2c-4.8.4-6.5-5.3-6.5-5.3V47.2l17.5-.8z"/>
                    <path fill="#FA8465" d="M34.7 47.7V53c-3.2 3.6-9 4.9-17.5 3.6v-8.1l17.5-.8z"/>
                    <path fill="#F8AE81" d="M5.6 28.8c.2 1.3.3 2.6.6 3.9 1.5 8.7 7 18 13.9 19.6 14.9 3.4 21.1-8.3 23.5-17 .3-1-.2-2.1 0-3.2.5-2.7 1.6-5.8 1.8-8.8.2-2.1.3-4.2.4-6C46 12 43 7.2 38.2 5.3c-6.9-2.7-17.3-4.9-27.1.9-3.6 2.1-5.9 6.1-6 10.4-.1 3.4 0 7.7.5 12.2z"/>
                    <path fill="#FA8465" d="M23.8 35.5c.3 0 .5-.2.6-.5.1-.3-.2-.6-.5-.7l-2-.3 2.7-7.3c.1-.3 0-.6-.3-.7-.3-.1-.6 0-.7.3l-3.2 8.6 3.4.6c-.1 0 0 0 0 0z"/>
                    <path fill="#373543" d="M11.3 14.2c-5.8 2.7-4 9.6-6 13.1-.1.2-.3.3-.4.2-.6-4.6-.6-9-.6-12.4.1-4.4 2.5-8.4 6.3-10.6C21-1.4 32 .8 39.2 3.6c5 1.9 8.2 6.9 8 12.2-.1 1.9-.2 4-.4 6.1-1 .6-3.3.8-3.4 2.4-.3 4.1-.5 6.9-1.3 6.7-1.4-.4-2.3-5.4-.7-8.6 0 0-1.3-2.2-6.8-4.3-7-2.7-13.7-6.7-13.7-6.7s-2.6-1.6-3.7-3.3c.2-.1-1.4 4.1-5.9 6.1z"/>
                    <ellipse cx="15.5" cy="25.8" fill="#373543" rx="1.5" ry="2.3"/>
                    <ellipse cx="31.4" cy="25.8" fill="#373543" rx="1.5" ry="2.3"/>
                    <path fill="#373543" d="M11.6 19.8c1.2-.2 3.6-.6 6.1-.5.7 0 1.2.5 1.1 1.1-.1.4-.5.7-1.1.7-1.7-.1-6.3-.1-8.4.5-.1-.3.1-.6.4-.9.6-.5 1.2-.8 1.9-.9zM35.2 20.1c-1.2-.2-3.6-.7-6.1-.6-.7 0-1.2.5-1.1 1 .1.4.5.7 1.1.7 1.7-.1 6.3 0 8.4.6.1-.3-.1-.6-.4-.9-.6-.4-1.2-.7-1.9-.8z"/>
                    <path fill="#FFF" d="M17.4 39c.4 2 1.9 5.8 6.7 5.8 4.8 0 6.2-3.4 6.6-5.8H17.4z"/>
                    <path fill="#FA8465" d="M24 48.2c-1.4 0-2.6-.7-2.7-.8-.3-.2-.4-.5-.2-.8.2-.3.5-.4.8-.2 0 0 1 .6 2.1.6s2.2-.6 2.2-.6c.3-.2.6-.1.8.2.2.3.1.6-.2.8-.1.1-1.4.8-2.8.8z"/>
                </g>
                <g transform="translate(463 66)">
                    <path fill="#F8AE81" d="M.6 2.7s4.1-4.9 6.5-1.4c2.4 3.6-1 14.1-6.9 11.5L.6 2.7z"/>
                    <circle cx="2.8" cy="13.1" r="1.2" fill="#FFF"/>
                    <path fill="#FA8465" d="M1.5 9.6c.2 0 .4-.1.5-.4.9-3.3 4.3-4.6 4.3-4.6.3-.1.4-.4.3-.6-.1-.3-.4-.4-.6-.3-.2.1-3.9 1.5-4.9 5.2-.1.3.1.5.3.6 0 .1.1.1.1.1z"/>
                    <path fill="#FA8465" d="M4.9 8c.1 0 .2 0 .3-.1.2-.1.3-.5.1-.7 0 0-.6-.9-1.9-1.5-.2-.1-.5 0-.7.3-.1.3 0 .5.2.7 1 .4 1.4 1.1 1.4 1.1.3.1.5.2.6.2z"/>
                </g>
            </g>
            <g>
                <path fill="#373543" d="M466.2 251.5l1 55.6c0 2.2 1.8 3.9 4 3.9l90.5-1.6c2.2 0 3.9-1.8 3.9-4l-1-55.6c0-2.2-1.8-3.9-4-3.9l-90.5 1.6c-2.2 0-4 1.8-3.9 4z"/>
                <path fill="#565960" d="M466.7 281.7l-.5-30.2c0-2.2 1.7-4 3.9-4l90.5-1.6c2.2 0 4 1.7 4 3.9l.5 30.2-98.4 1.7z"/>
                <path fill="#F59503" d="M501.2 238.1l.2 8.8 4.5-.1-.2-8.6 4.3-.1h3.1l11.5-.2.2 8.6 4.5-.1-.2-8.8c0-2.3-2-4.2-4.3-4.2l-10.7.2H511.5l-6.1.1c-2.4.1-4.2 2.1-4.2 4.4z"/>
                <path fill="#E97C00" d="M510.3 238.2h2.9c.4-1.6.7-3.2.9-4.5h-2.3c-.4 1.8-1 3.3-1.5 4.5zM524.8 243.3v3.2l4.5-.1-.1-3.1zM501.33 243.761l4.5-.078.055 3.2-4.5.078z"/>
                <g>
                    <path fill="#E97C00" d="M540.3 276l.2 8.8c0 .5.4.9.9.8l4.5-.1c.5 0 .9-.4.8-.9l-.2-8.8c0-.5-.4-.9-.9-.9l-4.5.1c-.4.1-.8.5-.8 1z"/>
                    <path fill="#F59503" d="M540.3 276l.1 4.4 6.2-.1-.1-4.4c0-.5-.4-.9-.9-.9l-4.5.1c-.4 0-.8.4-.8.9z"/>
                    <g>
                        <path fill="#E97C00" d="M485.1 276.9l.2 8.8c0 .5.4.9.9.8l4.5-.1c.5 0 .9-.4.8-.9l-.2-8.8c0-.5-.4-.9-.9-.9l-4.5.1c-.4.2-.8.6-.8 1z"/>
                        <path fill="#F59503" d="M485.1 276.9l.1 4.4 6.2-.1-.1-4.4c0-.5-.4-.9-.9-.9l-4.5.1c-.4.1-.8.5-.8.9z"/>
                    </g>
                </g>
                <path fill="#F8AE81" d="M506.2 233.8c1.7 0 2.7-.1 3.8-.1 0-.3.3-.6.8-.9 1.1-.6 2.1.2 2.1.9.2 1.4.2 2.4-.7 4.5h-2.1s.5 3.2 1.8 3.5c1.7.4 2.4-1.3 2.4-1.3s.1 1.8 1.5 1.9c1.4.1 2.2-1.3 2.2-1.3 1.5 2.1 3.2.4 3.2.4s1.5 1.8 2.8.3c1.3-1.5 1.4-7.8 1.4-7.8.5-5.8-.2-12.3-1.3-17.1.1-1.8-.6-4.1-.5-6.5-2.7.4-4.1.6-6.8.9l-4 .5c.6 3.3.2 6.1.5 7.9-.8 1.4-1.6 2.9-2.1 4-.7 2.5-4.6 7.1-5 10.2z"/>
                <path fill="#D72C0F" d="M493.4 157l-16.2-18.9s-2.5-19 6.4-25.4c0 0 16 21.9 24.1 34.3 0 0 12.3 18.2 14.7 27.5l2 39.4s-8.5 3.3-12 1c-1.9-12.4-4.4-30.1-4-35.3l-15-22.6z"/>
            </g>
        </g>
    </g>
</svg>
